<?xml version="1.0" encoding="UTF-8"?>
<svg width="235px" height="234px" viewBox="0 0 235 234" version="1.1" xmlns="http://www.w3.org/2000/svg" xmlns:xlink="http://www.w3.org/1999/xlink">
    <title>画板@1.5x</title>
    <defs>
        <linearGradient x1="50%" y1="100%" x2="50%" y2="0%" id="linearGradient-1">
            <stop stop-color="#F7A53F" offset="0%"></stop>
            <stop stop-color="#EB6C1D" offset="100%"></stop>
        </linearGradient>
        <linearGradient x1="50%" y1="100%" x2="50%" y2="0%" id="linearGradient-2">
            <stop stop-color="#F7A53F" offset="0%"></stop>
            <stop stop-color="#F58946" offset="100%"></stop>
        </linearGradient>
        <linearGradient x1="50%" y1="100%" x2="50%" y2="0%" id="linearGradient-3">
            <stop stop-color="#F7A53F" offset="0%"></stop>
            <stop stop-color="#FF8D46" offset="100%"></stop>
        </linearGradient>
        <linearGradient x1="50%" y1="0%" x2="50%" y2="100%" id="linearGradient-4">
            <stop stop-color="#FC9F66" offset="0%"></stop>
            <stop stop-color="#FAA115" offset="100%"></stop>
        </linearGradient>
    </defs>
    <g id="画板" stroke="none" stroke-width="1" fill="none" fill-rule="evenodd">
        <g id="编组" transform="translate(21.475666, 12.000000)">
            <polygon id="矩形备份-3" fill="url(#linearGradient-1)" transform="translate(22.523607, 48.937804) rotate(-28.000000) translate(-22.523607, -48.937804) " points="10.4317866 23.7027007 34.6154271 23.7027007 34.6154271 74.1729069 10.4317866 74.1729069"></polygon>
            <polygon id="矩形备份-4" fill="url(#linearGradient-2)" transform="translate(159.850566, 50.589994) rotate(31.000000) translate(-159.850566, -50.589994) " points="147.758746 25.8806221 171.942386 25.8806221 171.942386 75.2993656 147.758746 75.2993656"></polygon>
            <polygon id="矩形备份-5" fill="url(#linearGradient-3)" transform="translate(93.143765, 26.151758) rotate(8.000000) translate(-93.143765, -26.151758) " points="81.0519444 1.44238621 105.235585 1.44238621 105.235585 50.8611298 81.0519444 50.8611298"></polygon>
            <path d="M91.7105426,65.5423115 C102.419857,69.641971 110.805128,74.047611 121.330376,78.5990694 C138.700129,86.1103142 162.396799,100.419298 176.959554,115.498395 C178.456558,117.048477 180.244243,118.853733 182.05676,120.788158 L182.575069,121.344257 C189.22947,128.523173 195.877343,137.277366 189.413408,141.395325 C182.690682,145.678152 176.045681,143.51212 169.451911,141.154527 L168.61043,140.853 C161.740569,138.3899 154.925168,136.008003 148.134204,140.797884 C147.161113,141.484236 162.411734,197.303803 152.758416,205.086113 C147.89873,209.003893 127.571273,208.084385 121.330376,208.213798 C116.375819,208.316537 104.921836,208.614259 93.2636598,208.949029 L91.7423875,208.992892 L90.2219037,209.037097 C78.8289924,209.369725 67.7645391,209.724665 62.9220784,209.954061 C21.0937017,211.935547 51.3340431,149.241478 42.9662534,133.125735 C41.1972143,129.718697 31.9091588,129.636596 28.0971882,129.182404 C12.400077,127.31211 17.9308495,138.95742 5.50722809,129.182404 C-1.62042565,123.574303 10.8259528,113.176894 18.4497483,107.942113 C55.3897116,82.5777627 43.7414467,87.3027779 76.1485701,70.2787845 Z M118.737784,125.994557 L77.7307413,125.994557 L77.7307413,171.20745 L118.737784,171.20745 L118.737784,125.994557 Z" id="形状结合备份" fill="url(#linearGradient-4)"></path>
        </g>
    </g>
</svg>