<?xml version="1.0" encoding="UTF-8"?>
<svg width="647px" height="181px" viewBox="0 0 647 181" version="1.1" xmlns="http://www.w3.org/2000/svg" xmlns:xlink="http://www.w3.org/1999/xlink">
    <title>画板 2@1.5x</title>
    <defs>
        <linearGradient x1="50%" y1="100%" x2="50%" y2="0%" id="linearGradient-1">
            <stop stop-color="#F7A53F" offset="0%"></stop>
            <stop stop-color="#EB6C1D" offset="100%"></stop>
        </linearGradient>
        <linearGradient x1="50%" y1="100%" x2="50%" y2="0%" id="linearGradient-2">
            <stop stop-color="#F7A53F" offset="0%"></stop>
            <stop stop-color="#F58946" offset="100%"></stop>
        </linearGradient>
        <linearGradient x1="50%" y1="100%" x2="50%" y2="0%" id="linearGradient-3">
            <stop stop-color="#F7A53F" offset="0%"></stop>
            <stop stop-color="#FF8D46" offset="100%"></stop>
        </linearGradient>
        <linearGradient x1="50%" y1="0%" x2="50%" y2="100%" id="linearGradient-4">
            <stop stop-color="#FC9F66" offset="0%"></stop>
            <stop stop-color="#FAA115" offset="100%"></stop>
        </linearGradient>
    </defs>
    <g id="画板 2" stroke="none" stroke-width="1" fill="none" fill-rule="evenodd">
        <g id="编组" transform="translate(4.000000, 0.000000)">
            <polygon id="矩形备份-3" fill="url(#linearGradient-1)" transform="translate(19.198693, 41.713652) rotate(-28.000000) translate(-19.198693, -41.713652) " points="8.89185622 20.2037306 29.5055307 20.2037306 29.5055307 63.223573 8.89185622 63.223573"></polygon>
            <polygon id="矩形备份-4" fill="url(#linearGradient-2)" transform="translate(136.253578, 43.121947) rotate(31.000000) translate(-136.253578, -43.121947) " points="125.946741 22.0601493 146.560415 22.0601493 146.560415 64.183745 125.946741 64.183745"></polygon>
            <polygon id="矩形备份-5" fill="url(#linearGradient-3)" transform="translate(79.393971, 22.291260) rotate(8.000000) translate(-79.393971, -22.291260) " points="69.0871336 1.22946253 89.7008081 1.22946253 89.7008081 43.3530582 69.0871336 43.3530582"></polygon>
            <path d="M78.1723197,55.8670179 C87.3007353,59.3614895 94.4481806,63.1167732 103.419701,66.9963497 C118.225348,73.3987916 138.423938,85.5954965 150.836953,98.4486317 C152.477547,100.147396 154.527721,102.205708 156.505861,104.395299 L156.944066,104.883943 C162.110829,110.689604 166.532786,117.286124 161.452381,120.522682 C155.948093,124.029283 150.504931,122.464099 145.102884,120.554145 L143.917721,120.131201 C137.99513,118.007311 132.120301,115.884757 126.266774,120.013435 C125.437329,120.598468 138.436669,168.178003 130.208364,174.811496 C127.295807,177.159541 117.865066,177.469132 110.673085,177.484353 L109.72819,177.484791 C107.092932,177.481957 104.832726,177.448175 103.419701,177.477475 C99.261651,177.563697 89.7331455,177.811034 79.9557071,178.090995 L78.5236799,178.132183 C78.2849107,178.139082 78.046142,178.145996 77.8074482,178.152924 L76.3767778,178.194643 C66.852889,178.473675 57.6865426,178.768847 53.6335811,178.960843 C17.9798695,180.649823 43.7561605,127.210593 36.623616,113.473841 C35.1157207,110.569746 27.1987592,110.499766 23.949508,110.112621 C10.5695895,108.518418 15.2839145,118.444658 4.69425632,110.112621 C-1.38121996,105.332382 9.22783594,96.4698285 15.726214,92.0078009 C47.2131351,70.387712 37.284376,74.4152249 64.9075907,59.9042972 Z M101.209825,107.39536 L66.2562033,107.39536 L66.2562033,145.933969 L101.209825,145.933969 L101.209825,107.39536 Z" id="形状结合备份" fill="url(#linearGradient-4)"></path>
        </g>
        <text id="茶" font-family="Pangmenzhengdaoqingsongti" font-size="250" font-weight="normal" fill="#484848">
            <tspan x="150.391671" y="165.5">茶</tspan>
        </text>
        <text id="桁" font-family="Pangmenzhengdaoqingsongti" font-size="250" font-weight="normal" fill="#484848">
            <tspan x="341.608329" y="165.5">桁</tspan>
        </text>
        <text id="MAMT" font-family="HannotateSC-W5, Hannotate SC" font-size="25" font-weight="normal" fill="#484848">
            <tspan x="579" y="27">MAMT</tspan>
        </text>
    </g>
</svg>